# xmcd
#
# Track frame offsets: 
#        150
#        11545
#        22464
#        33156
#        41931
#        51258
#        59607
#        71969
#        83286
#        93216
#        102555
#        114818
#        127457
#        138797
#        147002
#        156562
#        166742
#        176038
#        189134
#        199441
#        209684
#        220556
#        230818
#        241462
#
# Disc length: 3369 seconds
#
# Revision: 2
# Processed by: cddbd v1.5.2PL0 Copyright (c) Steve Scherf et al.
# Submitted via: ExactAudioCopyFreeDBPlugin 1.0
#
DISCID=660d2718
DTITLE=Conway Twitty - Six Classic Albums Plus Singles
DYEAR=2013
DGENRE=Country
TTITLE0=Foggy River
TTITLE1=Platinum High School
TTITLE2=A Fallen Star
TTITLE3=I'd Still Play The Fool
TTITLE4=My Heart Cries
TTITLE5=That's Where My Lovin' Goes
TTITLE6=Long Black Train
TTITLE7=A Tree In The Meadow
TTITLE8=Above And Beyond (The Call Of Love)
TTITLE9=(I Wanna) Live Fast, Love Hard, Die Young
TTITLE10=Man Alone
TTITLE11=I Can Hear My Heart Break
TTITLE12=What A Dream
TTITLE13=Don't You Dare Let Me Down
TTITLE14=The Flame
TTITLE15=A Million Teardrops
TTITLE16=The Next Kiss (Is The Last Goodbye)
TTITLE17=I'm In A Blue, Blue Mood
TTITLE18=Tower Of Tears
TTITLE19=Sweet Sorrow
TTITLE20=It's Driving Me Wild
TTITLE21=Turn Around
TTITLE22=Walk On By
TTITLE23=Portrait Of A Fool
EXTD=
EXTT0=
EXTT1=
EXTT2=
EXTT3=
EXTT4=
EXTT5=
EXTT6=
EXTT7=
EXTT8=
EXTT9=
EXTT10=
EXTT11=
EXTT12=
EXTT13=
EXTT14=
EXTT15=
EXTT16=
EXTT17=
EXTT18=
EXTT19=
EXTT20=
EXTT21=
EXTT22=
EXTT23=
PLAYORDER=
